<?xml version="1.0" encoding="UTF-8"?>
<svg id="Capa_1" data-name="Capa 1" xmlns="http://www.w3.org/2000/svg" viewBox="0 0 839.5 333.21">
  <defs>
    <style>
      .cls-1, .cls-2 {
        fill: #0088c0;
      }

      .cls-3 {
        fill: #fff;
      }

      .cls-2 {
        font-family: Archivo-SemiBold, Archivo;
        font-size: 132.24px;
        font-variation-settings: 'wght' 600, 'wdth' 100;
        font-weight: 600;
      }
    </style>
  </defs>
  <g>
    <path class="cls-3" d="M0,0v33.38h35.29v100.93h42.1V33.38h35.67V0H0Z"/>
    <path class="cls-3" d="M142.67,42.91v32.91h-27.24v-32.91h-28.65v91.39h28.65v-35.63h27.24v35.63h28.67V42.91h-28.67Z"/>
    <path class="cls-3" d="M254.51,42.91l7.64,22.72h6.06v-22.72h-13.7ZM251.72,111.47h-42.44v-12.93h38.24l-7-21.56h-31.24v-11.35h27.54l-7.39-22.72h-48.82v91.39h78.54l-7.43-22.83Z"/>
    <path class="cls-3" d="M314.76,20.85l-23.25,78.05-23.4-78.05h-37.81l7.41,22.07,7.64,22.72,23.08,68.67h46.01l38.15-113.46h-37.83Z"/>
    <path class="cls-3" d="M552.56,99.33c6.36-2.06,11.24-5.46,14.64-10.21,3.41-4.73,5.1-10.15,5.1-16.27,0-5.69-1.31-10.77-3.94-15.29-2.63-4.52-6.55-8.09-11.8-10.71-5.25-2.63-11.58-3.94-18.99-3.94h-42.59v91.39h28.65v-32.78l17.3,32.78h31.5l-19.87-34.97ZM541.19,80.55c-1.37,1.24-3.43,1.86-6.19,1.86h-11.37v-15.48h11.37c2.66,0,4.71.68,6.14,2.06,1.41,1.37,2.12,3.26,2.12,5.69,0,2.66-.69,4.62-2.06,5.87Z"/>
    <path class="cls-3" d="M581.69,42.91v22.72h24.02v68.67h28.65v-68.67h24.28v-22.72h-76.95Z"/>
    <path class="cls-3" d="M728.84,65.63v-22.72h-60.94v91.39h60.94v-22.83h-32.27v-12.93h28.41v-21.56h-28.41v-11.35h32.27Z"/>
    <path class="cls-3" d="M804.73,89.12l29.55-46.21h-32.67l-13.42,22.85-16.14-22.85h-33.96l31.37,44.28-30.08,47.11h32.67l13.94-23.75,16.77,23.75h33.96l-32.01-45.18Z"/>
    <g>
      <path class="cls-3" d="M473.27,120.38c15.97-29.89,8.15-72.28-27.75-83.01,22.48,3.43,34.47,18.75,40.2,34.17-4.19-35.29-37.2-51.52-67.3-43.39-14.56,3.93-27.32,14.2-31.97,28.54-4.52,13.94-1.65,27.3,3.96,33.37,5.54,5.99,15.23,9.22,22.38,7.01,7-2.17,9.12-7.47,8.65-11.97-.31-2.98-2.73-5.44-6.27-4.51,2.02.37,2.99,1.57,3.07,3.57.14,3.59-4.18,6.18-8.11,5.84-8.21-.72-11.45-10.66-8.61-19.48,6.41-19.87,29.38-19.01,40.54-12.92,14.15,7.72,22.15,25.94,15.87,44.56-9.5,28.14-37.58,41.19-66.55,39.98-5.4-.23-10.95-1.14-14.55-2.52,4.59,3.14,15.21,8.04,24.84,9.84,21.94,4.11,54.72-.69,71.6-29.08Z"/>
      <path class="cls-1" d="M410.28,132.79c14.56-3.93,27.32-14.2,31.97-28.54,4.52-13.94,2.17-26.41-3.96-33.37-6.34-7.2-15.23-9.22-22.38-7.01-7,2.17-9.12,7.47-8.65,11.97.31,2.98,2.73,5.44,6.27,4.51-2.02-.37-2.99-1.58-3.07-3.57-.14-3.59,4.18-6.18,8.11-5.84,8.21.72,11.19,9.97,8.29,18.77-6.13,18.66-28.62,18.49-40.03,12.89-13.33-6.53-20.74-24.74-16.07-43.82,6.98-28.48,32.15-43.43,59.61-43.48,8.6-.01,19.32,2.52,22.93,3.9-5-4.1-15.13-8.44-26.6-10.59-12.94-2.43-28.04-.56-41.8,5.56-23.89,10.64-39.29,34.66-37.63,60.76,1.22,19.2,11.28,37.05,31.69,44.89-18.05-4.18-28.56-15.7-34.28-28.37,6.35,32.36,36.9,49.09,65.6,41.34Z"/>
    </g>
  </g>
  <text class="cls-2" transform="translate(254.51 279.52) scale(.99 1)"><tspan x="0" y="0">ESTUDIO</tspan></text>
</svg>